<mxfile host="app.diagrams.net" agent="Mozilla/5.0 (Macintosh; Intel Mac OS X 10_15_7) AppleWebKit/537.36 (KHTML, like Gecko) Chrome/130.0.0.0 Safari/537.36" version="24.8.4">
  <diagram name="PÃ¡gina-1" id="ylXK99fzAm1Glx5UxfYu">
    <mxGraphModel dx="2457" dy="2059" grid="1" gridSize="10" guides="1" tooltips="1" connect="1" arrows="1" fold="1" page="1" pageScale="1" pageWidth="827" pageHeight="1169" math="0" shadow="0">
      <root>
        <mxCell id="0" />
        <mxCell id="1" parent="0" />
        <mxCell id="ZYWwGjfgmMT3p-89F5cJ-2" value="Cloud Provider" style="sketch=0;outlineConnect=0;gradientColor=none;html=1;whiteSpace=wrap;fontSize=12;fontStyle=0;shape=mxgraph.aws4.group;grIcon=mxgraph.aws4.group_aws_cloud;strokeColor=#AAB7B8;fillColor=none;verticalAlign=top;align=left;spacingLeft=30;fontColor=#AAB7B8;dashed=0;" vertex="1" parent="1">
          <mxGeometry x="770" y="240" width="1360" height="1180" as="geometry" />
        </mxCell>
        <mxCell id="ZYWwGjfgmMT3p-89F5cJ-19" value="" style="rounded=0;whiteSpace=wrap;html=1;fillColor=none;" vertex="1" parent="1">
          <mxGeometry x="983.5" y="650" width="990" height="710" as="geometry" />
        </mxCell>
        <mxCell id="ZYWwGjfgmMT3p-89F5cJ-14" value="" style="rounded=0;whiteSpace=wrap;html=1;fillColor=none;" vertex="1" parent="1">
          <mxGeometry x="1550" y="270" width="423.5" height="260" as="geometry" />
        </mxCell>
        <mxCell id="ZYWwGjfgmMT3p-89F5cJ-1" value="CADIF On-Premise" style="sketch=0;outlineConnect=0;gradientColor=none;html=1;whiteSpace=wrap;fontSize=12;fontStyle=0;shape=mxgraph.aws4.group;grIcon=mxgraph.aws4.group_on_premise;strokeColor=#AAB7B8;fillColor=none;verticalAlign=top;align=left;spacingLeft=30;fontColor=#AAB7B8;dashed=0;" vertex="1" parent="1">
          <mxGeometry x="-630" y="220" width="650" height="480" as="geometry" />
        </mxCell>
        <mxCell id="ZYWwGjfgmMT3p-89F5cJ-3" value="Partner" style="html=1;outlineConnect=0;whiteSpace=wrap;fillColor=#ffff99;verticalLabelPosition=bottom;verticalAlign=top;align=center;shape=mxgraph.archimate3.actor;" vertex="1" parent="1">
          <mxGeometry x="956.75" y="-110" width="26.5" height="50" as="geometry" />
        </mxCell>
        <mxCell id="ZYWwGjfgmMT3p-89F5cJ-4" value="Service: Claims" style="html=1;outlineConnect=0;whiteSpace=wrap;fillColor=#99ffff;shape=mxgraph.archimate3.application;appType=comp;archiType=square;" vertex="1" parent="1">
          <mxGeometry x="-205" y="420" width="150" height="75" as="geometry" />
        </mxCell>
        <mxCell id="ZYWwGjfgmMT3p-89F5cJ-7" style="edgeStyle=orthogonalEdgeStyle;rounded=0;orthogonalLoop=1;jettySize=auto;html=1;" edge="1" parent="1" source="ZYWwGjfgmMT3p-89F5cJ-5" target="ZYWwGjfgmMT3p-89F5cJ-6">
          <mxGeometry relative="1" as="geometry" />
        </mxCell>
        <mxCell id="ZYWwGjfgmMT3p-89F5cJ-59" value="Data Storage" style="edgeLabel;html=1;align=center;verticalAlign=middle;resizable=0;points=[];" vertex="1" connectable="0" parent="ZYWwGjfgmMT3p-89F5cJ-7">
          <mxGeometry x="-0.0057" y="-1" relative="1" as="geometry">
            <mxPoint y="1" as="offset" />
          </mxGeometry>
        </mxCell>
        <mxCell id="ZYWwGjfgmMT3p-89F5cJ-5" value="Service: Claims &amp;lt;&amp;lt;Command&amp;gt;&amp;gt;" style="html=1;outlineConnect=0;whiteSpace=wrap;fillColor=#99ffff;shape=mxgraph.archimate3.application;appType=comp;archiType=square;" vertex="1" parent="1">
          <mxGeometry x="-560" y="420" width="210" height="80" as="geometry" />
        </mxCell>
        <mxCell id="ZYWwGjfgmMT3p-89F5cJ-6" value="Database: Claims" style="html=1;outlineConnect=0;whiteSpace=wrap;fillColor=#99ffff;shape=mxgraph.archimate3.application;appType=comp;archiType=square;" vertex="1" parent="1">
          <mxGeometry x="-560" y="550" width="210" height="75" as="geometry" />
        </mxCell>
        <mxCell id="ZYWwGjfgmMT3p-89F5cJ-8" value="Prometheus" style="html=1;outlineConnect=0;whiteSpace=wrap;fillColor=#99ffff;shape=mxgraph.archimate3.application;appType=comp;archiType=square;" vertex="1" parent="1">
          <mxGeometry x="1593.5" y="300" width="150" height="75" as="geometry" />
        </mxCell>
        <mxCell id="ZYWwGjfgmMT3p-89F5cJ-9" value="Grafana" style="html=1;outlineConnect=0;whiteSpace=wrap;fillColor=#99ffff;shape=mxgraph.archimate3.application;appType=comp;archiType=square;" vertex="1" parent="1">
          <mxGeometry x="1593.5" y="420" width="150" height="75" as="geometry" />
        </mxCell>
        <mxCell id="ZYWwGjfgmMT3p-89F5cJ-10" style="edgeStyle=orthogonalEdgeStyle;rounded=0;orthogonalLoop=1;jettySize=auto;html=1;exitX=0.5;exitY=1;exitDx=0;exitDy=0;exitPerimeter=0;entryX=0.5;entryY=0;entryDx=0;entryDy=0;entryPerimeter=0;" edge="1" parent="1" source="ZYWwGjfgmMT3p-89F5cJ-8" target="ZYWwGjfgmMT3p-89F5cJ-9">
          <mxGeometry relative="1" as="geometry" />
        </mxCell>
        <mxCell id="ZYWwGjfgmMT3p-89F5cJ-11" value="OpenTelemetry" style="html=1;outlineConnect=0;whiteSpace=wrap;fillColor=#99ffff;shape=mxgraph.archimate3.application;appType=comp;archiType=square;" vertex="1" parent="1">
          <mxGeometry x="1793.5" y="300" width="150" height="75" as="geometry" />
        </mxCell>
        <mxCell id="ZYWwGjfgmMT3p-89F5cJ-12" value="ELK" style="html=1;outlineConnect=0;whiteSpace=wrap;fillColor=#99ffff;shape=mxgraph.archimate3.application;appType=comp;archiType=square;" vertex="1" parent="1">
          <mxGeometry x="1793.5" y="420" width="150" height="75" as="geometry" />
        </mxCell>
        <mxCell id="ZYWwGjfgmMT3p-89F5cJ-13" style="edgeStyle=orthogonalEdgeStyle;rounded=0;orthogonalLoop=1;jettySize=auto;html=1;exitX=0.5;exitY=1;exitDx=0;exitDy=0;exitPerimeter=0;entryX=0.5;entryY=0;entryDx=0;entryDy=0;entryPerimeter=0;" edge="1" parent="1" source="ZYWwGjfgmMT3p-89F5cJ-11" target="ZYWwGjfgmMT3p-89F5cJ-12">
          <mxGeometry relative="1" as="geometry" />
        </mxCell>
        <mxCell id="ZYWwGjfgmMT3p-89F5cJ-15" value="Observabilitry" style="text;html=1;align=center;verticalAlign=middle;whiteSpace=wrap;rounded=0;" vertex="1" parent="1">
          <mxGeometry x="1563.5" y="270" width="60" height="30" as="geometry" />
        </mxCell>
        <mxCell id="ZYWwGjfgmMT3p-89F5cJ-16" value="Cloudfront" style="html=1;outlineConnect=0;whiteSpace=wrap;fillColor=#99ffff;shape=mxgraph.archimate.application;appType=comp" vertex="1" parent="1">
          <mxGeometry x="890" y="300" width="160" height="60" as="geometry" />
        </mxCell>
        <mxCell id="ZYWwGjfgmMT3p-89F5cJ-17" value="API Gateway" style="html=1;outlineConnect=0;whiteSpace=wrap;fillColor=#99ffff;shape=mxgraph.archimate.application;appType=comp" vertex="1" parent="1">
          <mxGeometry x="890" y="400" width="160" height="60" as="geometry" />
        </mxCell>
        <mxCell id="ZYWwGjfgmMT3p-89F5cJ-18" value="Firewall" style="html=1;outlineConnect=0;whiteSpace=wrap;fillColor=#99ffff;shape=mxgraph.archimate.application;appType=comp" vertex="1" parent="1">
          <mxGeometry x="890" y="515" width="160" height="60" as="geometry" />
        </mxCell>
        <mxCell id="ZYWwGjfgmMT3p-89F5cJ-20" value="VPC" style="text;html=1;align=center;verticalAlign=middle;whiteSpace=wrap;rounded=0;" vertex="1" parent="1">
          <mxGeometry x="983.5" y="660" width="60" height="30" as="geometry" />
        </mxCell>
        <mxCell id="ZYWwGjfgmMT3p-89F5cJ-21" style="edgeStyle=orthogonalEdgeStyle;rounded=0;orthogonalLoop=1;jettySize=auto;html=1;entryX=0.5;entryY=0;entryDx=0;entryDy=0;entryPerimeter=0;" edge="1" parent="1" source="ZYWwGjfgmMT3p-89F5cJ-3" target="ZYWwGjfgmMT3p-89F5cJ-16">
          <mxGeometry relative="1" as="geometry" />
        </mxCell>
        <mxCell id="ZYWwGjfgmMT3p-89F5cJ-23" value="" style="rounded=0;whiteSpace=wrap;html=1;fillColor=none;" vertex="1" parent="1">
          <mxGeometry x="1010" y="700" width="943.5" height="650" as="geometry" />
        </mxCell>
        <mxCell id="ZYWwGjfgmMT3p-89F5cJ-24" value="&lt;h4&gt;kubernets&lt;/h4&gt;" style="text;html=1;align=center;verticalAlign=middle;whiteSpace=wrap;rounded=0;" vertex="1" parent="1">
          <mxGeometry x="1010" y="710" width="60" height="30" as="geometry" />
        </mxCell>
        <mxCell id="ZYWwGjfgmMT3p-89F5cJ-28" style="edgeStyle=orthogonalEdgeStyle;rounded=0;orthogonalLoop=1;jettySize=auto;html=1;" edge="1" parent="1" source="ZYWwGjfgmMT3p-89F5cJ-26" target="ZYWwGjfgmMT3p-89F5cJ-27">
          <mxGeometry relative="1" as="geometry" />
        </mxCell>
        <mxCell id="ZYWwGjfgmMT3p-89F5cJ-39" value="Publish Events" style="edgeLabel;html=1;align=center;verticalAlign=middle;resizable=0;points=[];" vertex="1" connectable="0" parent="ZYWwGjfgmMT3p-89F5cJ-28">
          <mxGeometry x="-0.1286" y="1" relative="1" as="geometry">
            <mxPoint y="1" as="offset" />
          </mxGeometry>
        </mxCell>
        <mxCell id="ZYWwGjfgmMT3p-89F5cJ-26" value="Service: Sales &amp;lt;&amp;lt;Command&amp;gt;&amp;gt;" style="html=1;outlineConnect=0;whiteSpace=wrap;fillColor=#99ffff;shape=mxgraph.archimate.application;appType=comp" vertex="1" parent="1">
          <mxGeometry x="1081" y="800" width="160" height="60" as="geometry" />
        </mxCell>
        <mxCell id="ZYWwGjfgmMT3p-89F5cJ-27" value="Message Broker" style="html=1;outlineConnect=0;whiteSpace=wrap;fillColor=#99ffff;shape=mxgraph.archimate.application;appType=comp" vertex="1" parent="1">
          <mxGeometry x="1081" y="940" width="160" height="60" as="geometry" />
        </mxCell>
        <mxCell id="ZYWwGjfgmMT3p-89F5cJ-29" value="Service: Sales" style="html=1;outlineConnect=0;whiteSpace=wrap;fillColor=#99ffff;shape=mxgraph.archimate.application;appType=comp" vertex="1" parent="1">
          <mxGeometry x="1340" y="800" width="160" height="60" as="geometry" />
        </mxCell>
        <mxCell id="ZYWwGjfgmMT3p-89F5cJ-30" value="Policy: Sync" style="html=1;outlineConnect=0;whiteSpace=wrap;fillColor=#99ffff;shape=mxgraph.archimate.application;appType=comp" vertex="1" parent="1">
          <mxGeometry x="1340" y="940" width="160" height="60" as="geometry" />
        </mxCell>
        <mxCell id="ZYWwGjfgmMT3p-89F5cJ-31" style="edgeStyle=orthogonalEdgeStyle;rounded=0;orthogonalLoop=1;jettySize=auto;html=1;exitX=0.5;exitY=1;exitDx=0;exitDy=0;exitPerimeter=0;entryX=0.25;entryY=0;entryDx=0;entryDy=0;entryPerimeter=0;startArrow=classic;startFill=1;" edge="1" parent="1" source="ZYWwGjfgmMT3p-89F5cJ-29" target="ZYWwGjfgmMT3p-89F5cJ-30">
          <mxGeometry relative="1" as="geometry" />
        </mxCell>
        <mxCell id="ZYWwGjfgmMT3p-89F5cJ-38" value="Sync Policies" style="edgeLabel;html=1;align=center;verticalAlign=middle;resizable=0;points=[];" vertex="1" connectable="0" parent="ZYWwGjfgmMT3p-89F5cJ-31">
          <mxGeometry x="-0.1595" y="-4" relative="1" as="geometry">
            <mxPoint as="offset" />
          </mxGeometry>
        </mxCell>
        <mxCell id="ZYWwGjfgmMT3p-89F5cJ-32" value="Service: Post-Sales &amp;lt;&amp;lt;Query&amp;gt;&amp;gt;" style="html=1;outlineConnect=0;whiteSpace=wrap;fillColor=#99ffff;shape=mxgraph.archimate.application;appType=comp" vertex="1" parent="1">
          <mxGeometry x="1530" y="940" width="160" height="60" as="geometry" />
        </mxCell>
        <mxCell id="ZYWwGjfgmMT3p-89F5cJ-33" value="Database: Policies" style="html=1;outlineConnect=0;whiteSpace=wrap;fillColor=#99ffff;shape=mxgraph.archimate.application;appType=comp" vertex="1" parent="1">
          <mxGeometry x="1433.5" y="1080" width="160" height="60" as="geometry" />
        </mxCell>
        <mxCell id="ZYWwGjfgmMT3p-89F5cJ-34" style="edgeStyle=orthogonalEdgeStyle;rounded=0;orthogonalLoop=1;jettySize=auto;html=1;exitX=0.5;exitY=1;exitDx=0;exitDy=0;exitPerimeter=0;entryX=0.5;entryY=0;entryDx=0;entryDy=0;entryPerimeter=0;" edge="1" parent="1" source="ZYWwGjfgmMT3p-89F5cJ-30" target="ZYWwGjfgmMT3p-89F5cJ-33">
          <mxGeometry relative="1" as="geometry" />
        </mxCell>
        <mxCell id="ZYWwGjfgmMT3p-89F5cJ-37" value="Sync Policy Data" style="edgeLabel;html=1;align=center;verticalAlign=middle;resizable=0;points=[];" vertex="1" connectable="0" parent="ZYWwGjfgmMT3p-89F5cJ-34">
          <mxGeometry x="-0.4288" y="-1" relative="1" as="geometry">
            <mxPoint as="offset" />
          </mxGeometry>
        </mxCell>
        <mxCell id="ZYWwGjfgmMT3p-89F5cJ-35" style="edgeStyle=orthogonalEdgeStyle;rounded=0;orthogonalLoop=1;jettySize=auto;html=1;exitX=0.5;exitY=1;exitDx=0;exitDy=0;exitPerimeter=0;entryX=0.5;entryY=0;entryDx=0;entryDy=0;entryPerimeter=0;" edge="1" parent="1" source="ZYWwGjfgmMT3p-89F5cJ-32" target="ZYWwGjfgmMT3p-89F5cJ-33">
          <mxGeometry relative="1" as="geometry" />
        </mxCell>
        <mxCell id="ZYWwGjfgmMT3p-89F5cJ-36" value="Read Operations" style="edgeLabel;html=1;align=center;verticalAlign=middle;resizable=0;points=[];" vertex="1" connectable="0" parent="ZYWwGjfgmMT3p-89F5cJ-35">
          <mxGeometry x="-0.3312" y="-2" relative="1" as="geometry">
            <mxPoint as="offset" />
          </mxGeometry>
        </mxCell>
        <mxCell id="ZYWwGjfgmMT3p-89F5cJ-40" value="Service: Payment &amp;lt;&amp;lt;Command&amp;gt;&amp;gt;" style="html=1;outlineConnect=0;whiteSpace=wrap;fillColor=#99ffff;shape=mxgraph.archimate.application;appType=comp" vertex="1" parent="1">
          <mxGeometry x="1743.5" y="800" width="160" height="60" as="geometry" />
        </mxCell>
        <mxCell id="ZYWwGjfgmMT3p-89F5cJ-41" value="External Payment Provider" style="html=1;outlineConnect=0;whiteSpace=wrap;fillColor=#99ffff;shape=mxgraph.archimate.application;appType=comp" vertex="1" parent="1">
          <mxGeometry x="1743.5" y="940" width="160" height="60" as="geometry" />
        </mxCell>
        <mxCell id="ZYWwGjfgmMT3p-89F5cJ-42" style="edgeStyle=orthogonalEdgeStyle;rounded=0;orthogonalLoop=1;jettySize=auto;html=1;entryX=0.5;entryY=0;entryDx=0;entryDy=0;entryPerimeter=0;" edge="1" parent="1" source="ZYWwGjfgmMT3p-89F5cJ-40" target="ZYWwGjfgmMT3p-89F5cJ-41">
          <mxGeometry relative="1" as="geometry" />
        </mxCell>
        <mxCell id="ZYWwGjfgmMT3p-89F5cJ-43" value="Payment Processing" style="edgeLabel;html=1;align=center;verticalAlign=middle;resizable=0;points=[];" vertex="1" connectable="0" parent="ZYWwGjfgmMT3p-89F5cJ-42">
          <mxGeometry x="-0.3786" relative="1" as="geometry">
            <mxPoint y="1" as="offset" />
          </mxGeometry>
        </mxCell>
        <mxCell id="ZYWwGjfgmMT3p-89F5cJ-45" style="edgeStyle=orthogonalEdgeStyle;rounded=0;orthogonalLoop=1;jettySize=auto;html=1;" edge="1" parent="1" source="ZYWwGjfgmMT3p-89F5cJ-44" target="ZYWwGjfgmMT3p-89F5cJ-41">
          <mxGeometry relative="1" as="geometry" />
        </mxCell>
        <mxCell id="ZYWwGjfgmMT3p-89F5cJ-64" value="Secure API Communications for Payments" style="edgeLabel;html=1;align=center;verticalAlign=middle;resizable=0;points=[];" vertex="1" connectable="0" parent="ZYWwGjfgmMT3p-89F5cJ-45">
          <mxGeometry x="-0.5566" y="1" relative="1" as="geometry">
            <mxPoint y="1" as="offset" />
          </mxGeometry>
        </mxCell>
        <mxCell id="ZYWwGjfgmMT3p-89F5cJ-44" value="External Service: Payment" style="html=1;outlineConnect=0;whiteSpace=wrap;fillColor=#99ffff;shape=mxgraph.archimate.application;appType=comp" vertex="1" parent="1">
          <mxGeometry x="1718.5" y="1500" width="210" height="100" as="geometry" />
        </mxCell>
        <mxCell id="ZYWwGjfgmMT3p-89F5cJ-47" value="" style="rounded=0;whiteSpace=wrap;html=1;" vertex="1" parent="1">
          <mxGeometry x="170" y="250" width="430" height="340" as="geometry" />
        </mxCell>
        <mxCell id="ZYWwGjfgmMT3p-89F5cJ-52" style="edgeStyle=orthogonalEdgeStyle;rounded=0;orthogonalLoop=1;jettySize=auto;html=1;exitX=0.5;exitY=1;exitDx=0;exitDy=0;exitPerimeter=0;" edge="1" parent="1" source="ZYWwGjfgmMT3p-89F5cJ-48" target="ZYWwGjfgmMT3p-89F5cJ-49">
          <mxGeometry relative="1" as="geometry" />
        </mxCell>
        <mxCell id="ZYWwGjfgmMT3p-89F5cJ-53" value="Encrypted and Authenticated Channel" style="edgeLabel;html=1;align=center;verticalAlign=middle;resizable=0;points=[];" vertex="1" connectable="0" parent="ZYWwGjfgmMT3p-89F5cJ-52">
          <mxGeometry x="0.005" y="1" relative="1" as="geometry">
            <mxPoint as="offset" />
          </mxGeometry>
        </mxCell>
        <mxCell id="ZYWwGjfgmMT3p-89F5cJ-48" value="VPN/Direct Connect" style="html=1;outlineConnect=0;whiteSpace=wrap;fillColor=#99ffff;shape=mxgraph.archimate.application;appType=comp" vertex="1" parent="1">
          <mxGeometry x="310" y="315" width="160" height="60" as="geometry" />
        </mxCell>
        <mxCell id="ZYWwGjfgmMT3p-89F5cJ-49" value="MTLS" style="html=1;outlineConnect=0;whiteSpace=wrap;fillColor=#99ffff;shape=mxgraph.archimate.application;appType=comp" vertex="1" parent="1">
          <mxGeometry x="310" y="460" width="160" height="60" as="geometry" />
        </mxCell>
        <mxCell id="ZYWwGjfgmMT3p-89F5cJ-50" style="edgeStyle=orthogonalEdgeStyle;rounded=0;orthogonalLoop=1;jettySize=auto;html=1;entryX=0.5;entryY=0;entryDx=0;entryDy=0;entryPerimeter=0;" edge="1" parent="1" source="ZYWwGjfgmMT3p-89F5cJ-17" target="ZYWwGjfgmMT3p-89F5cJ-48">
          <mxGeometry relative="1" as="geometry" />
        </mxCell>
        <mxCell id="ZYWwGjfgmMT3p-89F5cJ-51" value="Encrypted Route" style="edgeLabel;html=1;align=center;verticalAlign=middle;resizable=0;points=[];" vertex="1" connectable="0" parent="ZYWwGjfgmMT3p-89F5cJ-50">
          <mxGeometry x="-0.2122" relative="1" as="geometry">
            <mxPoint y="1" as="offset" />
          </mxGeometry>
        </mxCell>
        <mxCell id="ZYWwGjfgmMT3p-89F5cJ-58" style="edgeStyle=orthogonalEdgeStyle;rounded=0;orthogonalLoop=1;jettySize=auto;html=1;exitX=0.25;exitY=1;exitDx=0;exitDy=0;exitPerimeter=0;" edge="1" parent="1" source="ZYWwGjfgmMT3p-89F5cJ-54" target="ZYWwGjfgmMT3p-89F5cJ-5">
          <mxGeometry relative="1" as="geometry" />
        </mxCell>
        <mxCell id="ZYWwGjfgmMT3p-89F5cJ-61" value="Foward request" style="edgeLabel;html=1;align=center;verticalAlign=middle;resizable=0;points=[];" vertex="1" connectable="0" parent="ZYWwGjfgmMT3p-89F5cJ-58">
          <mxGeometry x="-0.1714" relative="1" as="geometry">
            <mxPoint as="offset" />
          </mxGeometry>
        </mxCell>
        <mxCell id="ZYWwGjfgmMT3p-89F5cJ-54" value="API Gateway" style="html=1;outlineConnect=0;whiteSpace=wrap;fillColor=#99ffff;shape=mxgraph.archimate.application;appType=comp" vertex="1" parent="1">
          <mxGeometry x="-385" y="270" width="160" height="60" as="geometry" />
        </mxCell>
        <mxCell id="ZYWwGjfgmMT3p-89F5cJ-55" style="edgeStyle=orthogonalEdgeStyle;rounded=0;orthogonalLoop=1;jettySize=auto;html=1;entryX=1;entryY=0.5;entryDx=0;entryDy=0;entryPerimeter=0;" edge="1" parent="1" source="ZYWwGjfgmMT3p-89F5cJ-49" target="ZYWwGjfgmMT3p-89F5cJ-54">
          <mxGeometry relative="1" as="geometry" />
        </mxCell>
        <mxCell id="ZYWwGjfgmMT3p-89F5cJ-56" value="MTLS Authentication" style="edgeLabel;html=1;align=center;verticalAlign=middle;resizable=0;points=[];" vertex="1" connectable="0" parent="ZYWwGjfgmMT3p-89F5cJ-55">
          <mxGeometry x="-0.027" relative="1" as="geometry">
            <mxPoint as="offset" />
          </mxGeometry>
        </mxCell>
        <mxCell id="ZYWwGjfgmMT3p-89F5cJ-57" style="edgeStyle=orthogonalEdgeStyle;rounded=0;orthogonalLoop=1;jettySize=auto;html=1;exitX=0.5;exitY=1;exitDx=0;exitDy=0;exitPerimeter=0;entryX=0.5;entryY=0;entryDx=0;entryDy=0;entryPerimeter=0;" edge="1" parent="1" source="ZYWwGjfgmMT3p-89F5cJ-54" target="ZYWwGjfgmMT3p-89F5cJ-4">
          <mxGeometry relative="1" as="geometry" />
        </mxCell>
        <mxCell id="ZYWwGjfgmMT3p-89F5cJ-60" value="Route to Claims Service" style="edgeLabel;html=1;align=center;verticalAlign=middle;resizable=0;points=[];" vertex="1" connectable="0" parent="ZYWwGjfgmMT3p-89F5cJ-57">
          <mxGeometry x="-0.1482" y="-3" relative="1" as="geometry">
            <mxPoint as="offset" />
          </mxGeometry>
        </mxCell>
        <mxCell id="ZYWwGjfgmMT3p-89F5cJ-62" style="edgeStyle=orthogonalEdgeStyle;rounded=0;orthogonalLoop=1;jettySize=auto;html=1;exitX=0.5;exitY=1;exitDx=0;exitDy=0;exitPerimeter=0;entryX=0.552;entryY=-0.001;entryDx=0;entryDy=0;entryPerimeter=0;" edge="1" parent="1" source="ZYWwGjfgmMT3p-89F5cJ-18" target="ZYWwGjfgmMT3p-89F5cJ-19">
          <mxGeometry relative="1" as="geometry" />
        </mxCell>
        <mxCell id="ZYWwGjfgmMT3p-89F5cJ-63" style="edgeStyle=orthogonalEdgeStyle;rounded=0;orthogonalLoop=1;jettySize=auto;html=1;exitX=0.5;exitY=1;exitDx=0;exitDy=0;exitPerimeter=0;entryX=0.5;entryY=0;entryDx=0;entryDy=0;entryPerimeter=0;" edge="1" parent="1" source="ZYWwGjfgmMT3p-89F5cJ-17" target="ZYWwGjfgmMT3p-89F5cJ-18">
          <mxGeometry relative="1" as="geometry" />
        </mxCell>
        <mxCell id="ZYWwGjfgmMT3p-89F5cJ-67" value="" style="edgeStyle=orthogonalEdgeStyle;rounded=0;orthogonalLoop=1;jettySize=auto;html=1;exitX=0;exitY=0.5;exitDx=0;exitDy=0;exitPerimeter=0;" edge="1" parent="1" source="ZYWwGjfgmMT3p-89F5cJ-27" target="ZYWwGjfgmMT3p-89F5cJ-66">
          <mxGeometry relative="1" as="geometry">
            <mxPoint x="1081" y="970" as="sourcePoint" />
            <mxPoint x="-130" y="495" as="targetPoint" />
          </mxGeometry>
        </mxCell>
        <mxCell id="ZYWwGjfgmMT3p-89F5cJ-66" value="Notification Consumer Service" style="html=1;outlineConnect=0;whiteSpace=wrap;fillColor=#99ffff;shape=mxgraph.archimate3.application;appType=comp;archiType=square;" vertex="1" parent="1">
          <mxGeometry x="-205" y="560" width="150" height="75" as="geometry" />
        </mxCell>
        <mxCell id="ZYWwGjfgmMT3p-89F5cJ-68" style="edgeStyle=orthogonalEdgeStyle;rounded=0;orthogonalLoop=1;jettySize=auto;html=1;exitX=0.5;exitY=0;exitDx=0;exitDy=0;exitPerimeter=0;entryX=0.5;entryY=1;entryDx=0;entryDy=0;entryPerimeter=0;" edge="1" parent="1" source="ZYWwGjfgmMT3p-89F5cJ-66" target="ZYWwGjfgmMT3p-89F5cJ-4">
          <mxGeometry relative="1" as="geometry" />
        </mxCell>
        <mxCell id="ZYWwGjfgmMT3p-89F5cJ-69" value="Event Processing" style="edgeLabel;html=1;align=center;verticalAlign=middle;resizable=0;points=[];" vertex="1" connectable="0" parent="ZYWwGjfgmMT3p-89F5cJ-68">
          <mxGeometry x="0.0374" y="-3" relative="1" as="geometry">
            <mxPoint y="1" as="offset" />
          </mxGeometry>
        </mxCell>
        <mxCell id="ZYWwGjfgmMT3p-89F5cJ-70" style="edgeStyle=orthogonalEdgeStyle;rounded=0;orthogonalLoop=1;jettySize=auto;html=1;exitX=0.5;exitY=1;exitDx=0;exitDy=0;exitPerimeter=0;entryX=0.5;entryY=0;entryDx=0;entryDy=0;entryPerimeter=0;" edge="1" parent="1" source="ZYWwGjfgmMT3p-89F5cJ-16" target="ZYWwGjfgmMT3p-89F5cJ-17">
          <mxGeometry relative="1" as="geometry" />
        </mxCell>
      </root>
    </mxGraphModel>
  </diagram>
</mxfile>
